<?xml version="1.0" standalone="no"?>
<!DOCTYPE svg PUBLIC "-//W3C//DTD SVG 20010904//EN"
 "http://www.w3.org/TR/2001/REC-SVG-20010904/DTD/svg10.dtd">
<svg version="1.0" xmlns="http://www.w3.org/2000/svg"
 width="830.000000pt" height="830.000000pt" viewBox="0 0 830.000000 830.000000"
 preserveAspectRatio="xMidYMid meet">

<g transform="translate(0.000000,830.000000) scale(0.100000,-0.100000)"
fill="#000000" stroke="none">
<path d="M0 4150 l0 -4150 4150 0 4150 0 0 4150 0 4150 -4150 0 -4150 0 0
-4150z m3710 570 c0 -110 2 -200 5 -200 3 0 22 7 43 16 49 22 198 22 266 0 40
-12 53 -13 65 -3 14 10 14 10 4 -3 -10 -13 -8 -18 8 -28 11 -7 23 -10 28 -8 4
3 21 -10 36 -28 27 -33 29 -34 54 -19 l26 15 -23 -19 -24 -19 31 -50 c56 -91
63 -138 68 -471 l5 -303 -130 0 -131 0 -3 303 c-3 291 -4 303 -25 337 -29 46
-60 65 -79 49 -12 -10 -13 -9 -8 6 7 16 1 17 -53 13 -76 -5 -109 -26 -136 -86
-20 -44 -22 -67 -25 -334 l-4 -288 -124 0 -124 0 0 660 0 660 125 0 125 0 0
-200z m2000 -462 l0 -663 -125 3 -125 3 0 660 0 659 125 0 125 0 0 -662z
m-3893 356 c-3 -3 -12 -4 -19 -1 -8 3 -5 6 6 6 11 1 17 -2 13 -5z m3223 -4 c0
-5 -2 -10 -4 -10 -3 0 -8 5 -11 10 -3 6 -1 10 4 10 6 0 11 -4 11 -10z m1293
-7 c-7 -2 -19 -2 -25 0 -7 3 -2 5 12 5 14 0 19 -2 13 -5z m-2488 -13 c-3 -5
-14 -10 -23 -9 -14 0 -13 2 3 9 27 11 27 11 20 0z m-1835 -41 c165 -26 275
-124 294 -261 l7 -47 -120 -3 -121 -3 -9 27 c-8 23 -51 59 -51 43 0 -4 -7 1
-16 9 -37 37 -201 6 -198 -38 1 -9 -2 -13 -7 -10 -23 14 -6 -38 17 -53 28 -18
260 -66 275 -57 5 3 9 1 9 -4 0 -6 16 -13 36 -17 69 -12 158 -80 185 -139 22
-49 25 -163 5 -216 -13 -35 -66 -120 -66 -105 0 5 -10 -1 -22 -12 -80 -71
-277 -102 -431 -67 -80 18 -116 34 -164 73 -18 14 -39 26 -45 26 -7 0 -13 7
-13 15 0 8 -9 28 -20 44 -21 32 -24 40 -32 109 l-6 47 122 0 c102 0 121 -2
121 -15 0 -20 47 -68 59 -60 5 3 11 0 13 -7 5 -14 113 -23 164 -14 74 14 110
88 59 122 -13 9 -79 27 -147 40 -201 40 -268 66 -322 123 -16 17 -32 29 -35
27 -3 -2 -7 6 -8 17 -1 12 -5 55 -9 95 -5 58 -3 81 12 120 10 26 17 50 16 54
-1 5 3 7 9 5 6 -1 14 4 17 12 3 9 0 11 -9 6 -8 -5 -11 -5 -7 -1 3 4 10 8 15 9
4 0 35 18 68 39 103 67 220 89 355 67z m1058 -25 c37 -14 72 -26 79 -26 7 -1
10 -5 7 -9 -2 -4 4 -10 15 -14 51 -16 190 -199 191 -252 0 -6 6 -14 13 -16 6
-3 -51 -6 -129 -6 -137 -1 -141 0 -164 24 -12 13 -27 22 -32 19 -5 -3 -7 0 -6
8 4 18 -61 48 -120 55 -159 18 -290 -133 -252 -291 18 -74 56 -125 119 -158
62 -33 151 -39 189 -12 12 8 22 12 22 8 0 -11 53 28 73 53 18 22 24 23 153 23
107 0 134 -3 134 -14 0 -19 -25 -75 -49 -110 -20 -30 -19 -52 1 -40 7 5 8 2 3
-5 -5 -9 -10 -10 -18 -2 -7 7 -21 0 -46 -26 -20 -21 -35 -41 -34 -45 2 -4 -3
-7 -10 -5 -6 1 -11 -5 -9 -13 2 -8 1 -12 -3 -8 -4 3 -39 -9 -78 -28 -117 -55
-221 -67 -332 -38 -33 8 -71 18 -85 21 -13 4 -30 11 -36 17 -6 6 -36 29 -67
50 -100 72 -173 209 -184 345 -7 97 8 179 49 261 18 36 31 72 30 80 -2 12 -1
13 7 1 7 -11 11 -10 19 6 8 14 8 23 -1 32 -8 8 -7 15 8 29 17 15 18 15 6 0
-19 -26 -3 -43 20 -22 10 9 16 21 12 27 -3 6 -1 7 5 3 6 -4 35 11 64 32 48 35
86 49 203 76 44 10 169 -6 233 -30z m1958 11 c25 -7 52 -11 59 -9 7 3 16 1 20
-5 4 -7 -1 -9 -12 -5 -10 3 -3 -3 15 -15 18 -12 37 -19 42 -16 5 3 12 0 16 -6
5 -8 3 -9 -6 -4 -9 6 -11 4 -6 -4 5 -7 15 -10 23 -7 8 3 12 2 9 -3 -8 -12 19
-33 29 -23 5 4 5 2 2 -4 -3 -6 9 -25 27 -42 49 -46 103 -164 117 -252 13 -86
13 -77 -1 -155 -13 -72 -57 -170 -102 -226 -31 -39 -108 -101 -154 -125 -104
-54 -280 -66 -388 -26 -32 12 -63 19 -69 15 -6 -3 -7 -1 -4 4 9 14 -61 56 -76
47 -7 -4 -9 -3 -4 1 10 11 -53 76 -66 68 -6 -3 -7 -1 -3 5 4 7 -4 27 -17 44
-27 36 -60 96 -63 115 -1 6 -7 34 -13 63 -28 130 10 307 85 391 8 9 12 25 8
35 -4 14 -3 15 4 6 7 -10 15 -7 34 17 14 16 29 27 33 23 5 -4 5 1 2 10 -4 13
-2 15 10 11 12 -5 14 -3 8 7 -5 8 -4 11 3 6 9 -5 76 26 92 44 3 3 12 6 20 7 8
2 42 9 75 18 68 16 177 12 251 -10z m1369 9 c39 -9 80 -17 92 -18 12 0 20 -3
17 -5 -2 -2 18 -17 44 -33 61 -38 106 -82 145 -138 17 -25 35 -48 40 -51 5 -3
8 -8 7 -10 -1 -2 7 -35 19 -73 19 -62 21 -91 21 -345 l0 -276 -126 3 c-72 2
-124 -1 -120 -6 6 -10 -30 -9 -41 2 -5 4 -3 7 2 6 28 -6 35 2 35 40 l0 39 -25
-25 c-49 -49 -110 -68 -220 -68 -85 0 -109 4 -164 27 -60 24 -65 25 -77 9 -10
-14 -15 -15 -26 -4 -11 11 -10 12 3 7 10 -4 19 0 22 9 7 18 -8 30 -25 20 -7
-4 -10 -4 -6 0 8 9 -54 66 -72 66 -8 0 -10 3 -7 7 9 8 -13 34 -23 28 -4 -3 -7
3 -6 13 0 10 -5 16 -14 14 -8 -2 -12 -1 -8 3 3 4 -10 40 -29 81 -31 65 -37 88
-41 167 -3 64 0 110 11 152 8 33 17 67 19 75 1 8 5 17 9 20 13 12 54 86 51 93
-1 5 1 7 5 4 5 -2 21 12 38 32 17 20 21 30 10 21 -19 -14 -19 -14 -6 2 7 10
17 16 21 13 4 -3 19 4 33 15 41 32 152 81 204 90 75 12 112 11 188 -6z m-4199
-31 c-10 -11 -19 -7 -22 10 -2 15 0 16 12 6 8 -6 12 -14 10 -16z m404 12 c0
-2 -9 -3 -19 -2 -11 0 -18 5 -15 9 4 6 34 0 34 -7z m540 9 c0 -8 -19 -13 -24
-6 -3 5 1 9 9 9 8 0 15 -2 15 -3z m-1483 -21 c0 -8 -6 -9 -19 -2 -10 5 -18 11
-18 12 0 2 8 3 18 3 10 0 19 -6 19 -13z m974 0 c13 -16 12 -17 -3 -4 -17 13
-22 21 -14 21 2 0 10 -8 17 -17z m546 11 c-3 -3 -12 -4 -19 -1 -8 3 -5 6 6 6
11 1 17 -2 13 -5z m980 -9 c0 -8 -4 -12 -9 -9 -5 3 -6 10 -3 15 9 13 12 11 12
-6z m427 -1 c-16 -13 -16 -15 -1 -10 23 7 22 -1 -2 -14 -14 -7 -19 -6 -17 3 3
19 16 37 29 37 6 0 2 -7 -9 -16z m-2081 -80 c-4 -12 -8 -13 -14 -3 -9 15 -2
32 11 24 5 -3 6 -13 3 -21z m2022 15 c11 -16 1 -19 -13 -3 -7 8 -8 14 -3 14 5
0 13 -5 16 -11z m740 2 c3 -5 2 -12 -3 -15 -5 -3 -9 1 -9 9 0 17 3 19 12 6z
m1391 -13 c0 -10 -1 -18 -3 -18 -1 0 -7 8 -12 18 -7 13 -6 19 2 19 7 0 13 -9
13 -19z m-2155 -5 c13 -16 12 -17 -3 -4 -10 7 -18 15 -18 17 0 8 8 3 21 -13z
m2203 -9 c3 -8 2 -12 -4 -9 -6 3 -10 10 -10 16 0 14 7 11 14 -7z m-2387 -46
c-3 -7 -5 -2 -5 12 0 14 2 19 5 13 2 -7 2 -19 0 -25z m-1906 -21 c-10 -9 -11
-8 -5 6 3 10 9 15 12 12 3 -3 0 -11 -7 -18z m2063 15 c2 -4 -5 -9 -17 -9 -17
-2 -19 0 -7 7 18 12 18 12 24 2z m874 -17 c-3 -3 -9 2 -12 12 -6 14 -5 15 5 6
7 -7 10 -15 7 -18z m-2920 -19 c-7 -8 -15 -12 -17 -11 -5 6 10 25 20 25 5 0 4
-6 -3 -14z m3343 -59 c-10 -9 -11 -8 -5 6 3 10 9 15 12 12 3 -3 0 -11 -7 -18z
m-418 -2 c-3 -9 -8 -14 -10 -11 -3 3 -2 9 2 15 9 16 15 13 8 -4z m-3329 -21
c3 -8 2 -12 -4 -9 -6 3 -10 2 -10 -4 0 -5 5 -13 10 -16 13 -8 3 -25 -13 -24
-8 0 -8 2 1 6 9 3 10 9 2 18 -6 7 -8 20 -4 29 8 20 10 20 18 0z m859 -14 c16
-19 16 -20 -5 -20 -12 0 -18 3 -15 7 4 3 2 12 -4 20 -6 7 -7 13 -2 13 5 0 16
-9 26 -20z m107 5 c0 -12 -19 -12 -23 0 -4 9 -1 12 9 8 7 -3 14 -7 14 -8z
m997 0 c0 -8 -4 -12 -9 -9 -5 3 -6 10 -3 15 9 13 12 11 12 -6z m-172 -5 c3 -5
2 -10 -4 -10 -5 0 -13 5 -16 10 -3 6 -2 10 4 10 5 0 13 -4 16 -10z m130 0 c-3
-5 -1 -10 6 -10 7 0 10 -2 7 -5 -3 -3 -13 -2 -22 1 -14 5 -15 9 -4 15 17 11
20 11 13 -1z m-874 -37 c12 -16 12 -17 -2 -6 -9 7 -20 9 -24 5 -5 -4 -5 -1 -1
6 9 16 11 15 27 -5z m-796 -66 c-11 -7 -20 -18 -20 -26 0 -8 -7 -16 -15 -18
-12 -4 -13 -3 -1 5 7 5 11 14 7 20 -3 6 2 15 11 21 25 15 42 13 18 -2z m-726
-68 c-15 -9 -32 -2 -24 11 3 5 13 6 21 3 12 -4 13 -8 3 -14z m131 -54 c0 -2
-10 -9 -22 -15 -22 -11 -22 -10 -4 4 21 17 26 19 26 11z m325 -85 c-3 -5 -12
-10 -18 -10 -7 0 -6 4 3 10 19 12 23 12 15 0z m24 -66 c-5 -6 -5 -15 -1 -19 4
-5 2 -5 -5 -1 -7 4 -10 13 -6 21 3 8 0 15 -7 15 -6 0 -8 4 -5 10 4 6 11 5 20
-3 8 -7 10 -16 4 -23z m782 18 c-7 -2 -18 1 -23 6 -8 8 -4 9 13 5 13 -4 18 -8
10 -11z m155 -1 c-4 -5 -3 -11 1 -14 5 -2 2 -2 -5 0 -8 1 -21 3 -30 4 -10 1
-7 4 8 9 14 4 26 8 28 9 2 1 1 -3 -2 -8z m-1482 -42 c-3 -5 -10 -7 -15 -3 -5
3 -7 10 -3 15 3 5 10 7 15 3 5 -3 7 -10 3 -15z m2952 -51 c4 -6 0 -16 -9 -23
-9 -7 -13 -16 -9 -20 4 -5 1 -5 -7 0 -11 7 -11 11 5 22 16 12 17 15 4 23 -9 6
-10 10 -3 10 6 0 15 -5 19 -12z m1417 -13 c-3 -9 -8 -14 -10 -11 -3 3 -2 9 2
15 9 16 15 13 8 -4z m-1383 1 c0 -2 -8 -10 -17 -17 -16 -13 -17 -12 -4 4 13
16 21 21 21 13z m-1958 -30 c7 4 8 2 4 -5 -9 -13 -26 -5 -25 12 0 9 2 8 6 -1
2 -6 10 -9 15 -6z m768 -57 c0 -5 -4 -9 -8 -9 -5 0 -9 7 -9 15 0 8 4 12 9 9 4
-3 8 -9 8 -15z m1247 6 c0 -8 -4 -12 -9 -9 -5 3 -6 10 -3 15 9 13 12 11 12 -6z
m-2217 -20 c-7 -9 -15 -13 -19 -10 -3 3 1 10 9 15 21 14 24 12 10 -5z m-724
-7 c3 -4 -1 -5 -10 -4 -8 1 -18 5 -22 8 -3 4 1 5 10 4 8 -1 18 -5 22 -8z m652
-73 c-3 -3 -9 2 -12 12 -6 14 -5 15 5 6 7 -7 10 -15 7 -18z m942 5 c-8 -5 -22
-9 -30 -9 -10 0 -8 3 5 9 27 12 43 12 25 0z m1937 -5 c0 -8 -4 -12 -9 -9 -5 3
-6 10 -3 15 9 13 12 11 12 -6z"/>
<path d="M4802 4299 c-20 -6 -30 -14 -26 -21 5 -7 3 -8 -5 -3 -16 9 -65 -37
-99 -94 -35 -59 -37 -157 -6 -216 12 -22 27 -39 34 -37 6 1 8 -2 5 -8 -9 -14
29 -48 80 -71 53 -24 138 -24 193 1 23 10 42 24 42 30 0 5 6 10 13 10 14 0 51
52 66 93 6 16 11 56 11 89 0 166 -146 273 -308 227z m184 -60 c3 -6 17 -9 30
-6 13 2 21 0 18 -4 -3 -5 -13 -9 -22 -9 -19 1 -63 30 -45 30 7 0 15 -5 19 -11z
m70 -77 c-17 -16 -18 -16 -5 5 7 12 15 20 18 17 3 -2 -3 -12 -13 -22z m-336
-117 c0 -5 -5 -3 -10 5 -8 12 -10 12 -10 1 0 -8 -2 -12 -5 -9 -3 3 -2 13 1 22
5 14 9 15 15 4 5 -7 9 -17 9 -23z m336 -5 c0 -12 -4 -16 -9 -11 -5 5 -6 14 -3
20 10 15 12 14 12 -9z m0 -74 c0 -14 -5 -21 -9 -17 -4 4 -5 15 -1 24 9 24 12
21 10 -7z m-191 -96 c3 -6 -1 -7 -9 -4 -18 7 -21 14 -7 14 6 0 13 -4 16 -10z"/>
<path d="M6228 4304 c-10 -3 -18 -9 -18 -13 0 -4 -6 -8 -13 -8 -39 0 -104 -75
-127 -147 -15 -47 -8 -131 15 -177 37 -75 125 -129 209 -129 141 0 245 113
234 255 -11 134 -92 214 -223 221 -33 1 -68 1 -77 -2z m-9 -60 c4 3 8 0 8 -7
0 -7 -8 -13 -18 -13 -10 0 -15 5 -12 10 4 5 0 7 -9 4 -8 -4 -15 0 -15 7 0 10
5 11 19 4 10 -5 22 -8 27 -5z m276 -263 c3 -5 2 -12 -3 -15 -5 -3 -9 1 -9 9 0
17 3 19 12 6z m-378 -18 c0 -9 -4 -10 -14 -2 -7 6 -13 12 -13 14 0 1 6 2 13 2
8 0 14 -6 14 -14z m307 -84 c-3 -5 -10 -7 -15 -3 -5 3 -7 10 -3 15 3 5 10 7
15 3 5 -3 7 -10 3 -15z"/>
</g>
</svg>
